<mxfile host="app.diagrams.net" modified="2023-10-11T12:52:58.757Z" agent="Mozilla/5.0 (Windows NT 10.0; Win64; x64) AppleWebKit/537.36 (KHTML, like Gecko) Chrome/117.0.0.0 Safari/537.36" etag="lbVSBst0fbj6e153sHOX" version="22.0.4" type="device">
  <diagram name="PÃ¡gina-1" id="qdbccCizXios4x4qD1_O">
    <mxGraphModel dx="1290" dy="566" grid="1" gridSize="10" guides="1" tooltips="1" connect="1" arrows="1" fold="1" page="1" pageScale="1" pageWidth="827" pageHeight="1169" math="0" shadow="0">
      <root>
        <mxCell id="0" />
        <mxCell id="1" parent="0" />
        <mxCell id="QQR0XhGXe7q2qPDhbHRY-2" style="edgeStyle=orthogonalEdgeStyle;rounded=0;orthogonalLoop=1;jettySize=auto;html=1;" parent="1" source="e7M6pUnSMC9Z2cOsjcXj-4" target="QQR0XhGXe7q2qPDhbHRY-3" edge="1">
          <mxGeometry relative="1" as="geometry">
            <mxPoint x="911" y="380" as="targetPoint" />
          </mxGeometry>
        </mxCell>
        <mxCell id="e7M6pUnSMC9Z2cOsjcXj-4" value="" style="rounded=1;whiteSpace=wrap;html=1;fillColor=none;" parent="1" vertex="1">
          <mxGeometry x="381" y="180" width="380" height="400" as="geometry" />
        </mxCell>
        <mxCell id="e7M6pUnSMC9Z2cOsjcXj-1" value="" style="shape=image;verticalLabelPosition=bottom;labelBackgroundColor=default;verticalAlign=top;aspect=fixed;imageAspect=0;image=data:image/png,iVBORw0KGgoAAAANSUhEUgAAApwAAAECCAYAAABTzwcLAAAACXBIWXMAAAsTAAALEwEAmpwYAAAAB3RJTUUH3gkMDzIv7tskIwAAIABJREFUeNrt3U9sU1f+9/HvJTdxnOQm2IX0cZBAmghTiUhFbtGURYlUsUsWPKtmkx0s0tWwyW9FFmT1Y5NZlUVYPdmkq6eLZDMPQjIsmBGpf6kEUjHKSEEiHgzYYCexHTucZ2GcpjSB/PE999/7JY06nU5xcn3uOZ/zXwQAAACwkbH9b1K5imr2B3SZRyTe3WrwqAEA0C9dqKrV2jvadrgjcI4+eKXSxZotHzLUF5aJgR4KJgAAGo09zKlUfsOWPzsRaZNb56O07diTIyIis8trtoVNEZH5lZIks2XF4wYAQI+55+u2hU0RkVR+Q+aer9O2Y++Bs1izv7zYGWgBAMAfZcrvfPEZ8FHgBAAAAAicAAAAIHACAAAABE4AAAAQOAEAAEDgBAAAAAicAAAAIHACAACAwAkAAAAQOAEAAEDgBAAAAIETAAAAIHACAACAwAkAAAAQOAEAAEDgBAAAAIETAAAAIHACAACAwAkAAAACJwAAAEDgBAAAAIETAAAABE4AAACAwAkAAAACJwAAAAicAAAAAIETAAAABE4AAACAwAkAAAACJwAAAAicAAAAAIETAAAABE4AAAAQOAEAAAACJwAAAAicAAAAIHACAAAABE4AAAAQOAEAAAACJwAAAAicAAAAIHACAAAABE4AAAAQOAEAAEDgBAAAAAicAAAAIHACAACAwAkAAAAQOAEAAEDgBAAAAAicAAAAIHACAACAwAkAAAAQOAEAAEDgBAAAAIETAAAAIHACAACAwAkAAAACJwAAAHBYJo8AdkoXqmq19k5+yVdFRORpsSrFqvr9v9fUnv6cWLhFYu0tIiKSiLaJiMhXkdb6/x42DZ608zKlmsqUNre+61Ruo/6/lzclU9rc058Rt0zpMo/wPftQKldR6WJNijVF2YBvy/hKaVMy5XeSKf1etvfT1jXKudVqyGmrVSzTkLhlSiIa8nwZN0REppdW1e2lVVs/6Ep/l1zt76JS8Hm4TOU3JF2sydNiVdLFmrbPTkTa3r+UbTLY20450/h9p/Ibkspt7LlC5XsOVtlIF2t7DpXNKBunLVO+irYRQmnbbQ+Xv+Srkspt7CtQHkYs3FKv/yJt9fLe3eqp507gPERB02m4r911FWimVFPJbEVr4NiruGXKxd52GTwe8txL6WbJbFklsxW5ly274vtuVL5DfeFDf8+zy2vKjt/Jje+unWUjld/QEjD30jgPHg/JYG/o0KNDc8/XVab8znNlg7a9uZ2o5Mt63adzMOVjLNOQRLRNLh4PyfCJDtd/BwTOfbrx6K2aXyk5UrBmLnzmeMPVCJnzKyXXvHR7aXiG+sKBafjtqGhnn627JmR+KmAcJHyOPnil7CrPlmnIj19HfdnxSReqan6lJPMrJVeXDcs05GJvu4yc7Nj39zD2MKdS+Q3bfrZbX0dsmy6lbT98eze7vC7JlxVXdKI+ZbA35OrwSeD0QNhsuHbGkpFTnY48w7nn6+qnZ+ueCZm7SUTaZORUB9OxPv/O45Yp35/s2FPFm8pV1NhC3tafZ6gvLBMDPb4pc8lsWc0ur4udQcwNZSNdqKrRf762PSTcPBchcFL3NbWDNdQXlpFTHa4aZGGXukfCpohoH0HIlGpqemlVXbr7Qk0+Lng+bIqIpPIbMr74Ri7ff6nmnq8rSvbOle3l+y89/Z2nizWZfFyQy/dfqtnlNce/Zy+MjuynbIwvvvFk2NxeNi7dfaGml1Y/WjZWa+9s/3kamyjhPL+0d8Waktln63L5/iu58eitypTcMf1A4PRI2LRMQwaPh7QFzRuP3qrL91/J7aVVV0+VHSYANAJJKlehxpf6SF8jaPolIGVKmzL1pCiX7r6gg3HIsjH2MOerslGsKbm9tLqn4IlgBE0/tnfzKyW5fP+VjC/mHQ+eBE6PhE0da8C2B02nf2edgWRsIS9jD3Ou6QXqfwY1Nb6YV2MLed+EiZ3CxeTjgow+eEUH4wB14NhC3rMjmnsNnpfvv1TJbJmyESCNEXu/Dqxsl8xWtkY8CZyETUfD5vTSaqCC5odS+Q0ZffBa3DD9qtPs8poaffBaktlKIH7fdLEmYwt5mfqtQLD4ZANVVpfuvlBB6nyOL76R8cU8ZcPv9UCh6rsR+72aXynJpbsvHFlqROAMeNice76+NZUQdMWakqknRRl7mAtEgzO+mFdTT4q+79nvGLSfrbOc4hP13/jim0CWjWS2IpfuvmC006eml1bV6D9f+3bEfr9tnc6ZPQJnQMPm9h5esUa9ul0qvyGX7r5Q6YI/V/OnC1VVnz6sBPp7biynmFspU+i3lY3RB69UUGc6tjfI44tvZHppjULhm/e9psYe5hhc+aCt0zmzR+AMYNikh7e3BueHhZz4baPJ3PN19cNCLnDTSB8T9HC11fjkKuqHhZwvTqNoZoMM70tmy2r0AW3ebm3d1JOilqUkBM4Ahc3G6AU9vL2/iJOPC74JnbPLa4xoY9eOyNhCnrIB35ldXgvs8pD9hfJK/QIMG2f2CJwBCZuNUU1GL/bPD6HzxqO3aupJkS8TO4bNyccFHgR82a5T7+1duliTHxZyYtfadgKnS8Jm3DLlznefG80Om4xqEjrdUL5B2AR0Gl/MU+8dQLGm6mvbbWjvAh843RI2Zy4cs2W9Jmuymhs6vbarmbAJwiaCZvTBq8BvimxGe9fs0BnowOn3sDm7vKZYt9LsXvMb8coB8XPP1wmbIGwicGGTQRZ3hs7ABk6/h00RYZG0Tc90fPENgQKelcpVKBsgbEJ76Axk4AxC2BQRibWzRNcO6WJN3Hz3crpQVX9noTx2UL/G9A0PAoRNaA+dgUskQQmbIiLDJzqMRKSNt8UGt5dWxa0Hw4//yhEg2KVscDwMfNquEzbtD52H3cNwJGiFMihhs+HW+ahhmQZviy0v4FsXBoq84lB37GTqtwKNMmjXcagO62EGWo5QKPUZ7A1pDZsN1wd6eFNskC7WXHVU0uzyGjszsaNktqxmn63zIOArXtsYGbdMSUTadvxPLNzi+p+/WFMy/uvBl+SYhE09hvrCMjHQ48hQ42Bvu+HGXmBjut9qNeS01brj/yeVq19F9rRYdeVU4O1/u+Ou5UyppkYfvKYFwo4mH73lIcBfHf5CVY3+0711XiLSJolom3wVaZVENGSIiPxrj3V5uliTdLEmqdyG667jzJQ2ZexhTt06H913nvF94Ax62GyYGOgxLt9/6ch0ayzcIolIm8Qts97D28fL9+GL+EtuQ1L5qtzLll0RQDOlTZleWlVX+7sMZ8s5V1ZiZ+OLeUa+4b9y/av7Nr8N9obk4vGQDJ/oMP51wD8jFv7zGri55+vq3suKuOU9TuU3DtTu+TpwEjb/6OaXR0VXjzBumTLUF5bB3pDEwqbxc1OC6x9fxGS2rGaX1x3vATpdxrxyBJJl/j6SnYjuvpntabEqxaqS1do7Li04bMOQq6ixhTxlA3SibCy735/qlOG+domFTeOmDZ8xfKJjq+2bXlpVPy2vOT7A0Ng4u5/bEX0bOAmbO4TA7lZjemnVtmsuY+EWGTnZsRUyZ2zvTbYbIvWplaknRceCZ6a0KXPP19X2SkEntx6BFLdMudjb/ocppTsH+HPSharKlDe3ppcIGvuoB13aEdlayxZt23qP7xzo3XP39COab3Z5zRX3ozeC5tX+LuOOxs9tjCq6IXjud5TZl4HTDSM+bgub2wtrs88rS0TaZORUhwz2tjdlJPMgQVqkPuI5+eitIy/g/ErZke9z6reCqzaDxC1Tvj/ZsTWlNNPE7/fDdzyVrwq7U3dnZ+fSLR3SnaYfk9mySmYrrll2g2Z27t2xVr3Rvt9x8GdoBE8nR3v3u6TMd4GTsPlpN88dldEHrw9dGScibXK1v1MS0ZBxywW/V2OkxIkDgFP5DcmUamqnBtDOyvfy/VeuKFPby8KMhs/bPpo893xd/fRsnZHPD/y0vOa6svGzxnqgUTbmV8qMfPqE02vVY+EWmTjbvTVj4472PGI4Odiyn6l1Xx2LRNjc+6jA385YB/7345Ypt76OyK3zUcNNL17DzIVjxlBfWPvnzi7rHWmcXnI+UCQibY6XheETHcbMhWPGra8jwkUHjbKxqpwe3XNDPTF8osO4dT5K2fCBZLasnOw4DPaG5Odvj7uyzRvsbTfufPe5Yxe97HWJg28CpxvC5vWz3a4Pm9sr4sHe0L7+Hcs05PrZbpm5cMyVL912EwM92kNn8qW+aY1MqeboGmXLNOTaGctVnY5ENLQVLrxwpp2dnB7dvNLf5ap6YnvZIHh6k5PrNq/0d8nNcxHXt+23zkcdGWxJ5TckmS1/sofri8DplrDp1KaRg7p5LrLnW4iG+sJy57vPDS/9jhMDPUbc0rdqJFPalExJz7CSk6ObccuUH7+OysipTleWhUQ0ZPz87XHjSn9XIBtmJ0c3Y+EWmfnmM3H6mLBPBc9rZyzhBjZvlWmnblC7frbbteV5t3bv+tluV3YIPB84CZuHDZ1HP9mA3Po64pmR251+P50Ni47F206ObiYibTJz4Zixn6MwnHK1v8uY+eYz0dnpcAOnRjfjlik/f3vcE2Vj5FSnMXMheGWDMh2Mtn34RIf20Nk4rcW3gZOw2Zwe/8jJjh3/2ZX+LteuWdmrWNg0dF7tqWONke61og1DfWE5yO0STop3txozF47te/mIV80urzkyuhm3TEeu7T1s3eDUem/snVMj9l5v24dPdBjXDrFX4yA+dfOeZwMnYbN5rn3R/YfFxnHLdPW02H4N9rZrW0zduIrTTk6MbnphM9zH3DwXCUSwcOKILC+Gze0mBnoCu/zCC5wY3fRL2z5yqlNrvfepUU5PBk7CZvPdOh81fv72mMx885lnpkz342p/p5bPKdaUres4556va+/txy3T02Fze7Dwc+hMZsva17l5PWz+Xj90ObLuDR/nxOjmyPtzhP3yDHXvZfjYmdSeC5yETfvEwqbvgmZDIhrSNspp53mQP2kewbJMwxeBIgihU/fId/3Uih7fPL/hEx1Mr7uM7tHNRKRNrn3R7bs2UOdehlR+Q9KFqvJ84HQ6bDaOBfJj2AyCob52TwfOxjV+uisqv9Hd49dF920jfztjid86qBMDPYFZ7+uF9l7n6KZlGp5bo75Xuvcy7La054iXCp/TYfPHr6OETQ/T9d3ZtY5T92ahkZMd4uUNY27p8Wup4JfXtM47DvaGfFsX3jwXMYJ+jqsb6J7N0RnInKBzL8O9bNm7gdMtYdOv081BomP0YrX2zpY/V+fB8pZp+HJqaXuP/2+ad3DaSed0euPQfz+bYD2no9KFqtbZnMHe0B+uRPVtuR7QU66LNbXjQfCuD5yETTTTaavV/srShooyXahq3RDyN58HCpH6iLcfbp3RvdTi+1OdEgv7+9T0RDTE1HpAOlAi4vsO1PaOtq51yjt9h64OnIRNNNtXkVZP/tw6Rzdj4ZbALB3RdXqBnX7J6btf2jIN3xyXRgghcIrUlw75vQPlRJ2309Iy1wZOwibsoGtNYipXaeqaut3WxNjhyl86A1UevD7KeU9jZ+T7U8EpGzpHg7Ctc50ta9ss5PelQ06W652m1V0ZOAmbwB/pmjIN0uhmw8ipDo830HoCZ5BGNxuGNZ1sge2ddX0j9hd7g/n96irXH36XrguchE3gz++Ers8K4oiOl3erN3skncYZjnegNI7Y+2FJzUEkoiEtJzF8+F26KnA6HTbrt2Z8Rtj0+8vmsSnUVL7qu54vmuMXjWVj5GQHDxy20rk5crA3FKi1m3/6/Y/bvykuU9r8w817rgmc7gibx4wgF8CgsOvYIruCwNOinlAR9ArYi3RNP8bCLXTEoaFzrXE6/XiwTyHQdQrD9k2NrgicbgmbvO4B6UVrvq3HKz9v0CtgGujdsXkGfgucQb/ERdcG2qfb2i/H73cjbMKWiuv92rZ0sSbFmno/tL8pq7V3ngqcqVxFjS3ktXzWV9E2Co6XOiKFqhr952stnzVIZwRa6js9gXOwNyT/4nFL3DJtbw/TbgmcOitMwqb/AmWxpiRdrMlqtR4it4dJXSHNbrrW6MUtk+l0rwVOTUstLNNgOh22y5Rq6vL9V1o+6+LxkNzkkctpq9X2wLl91NqxwJkuVNUPCznCJj4aKldKm5Ipv5OnxaoUq2qr8PolUH6KrvWbiUibzFDkPFY29IzUJ6JtcofHDds7UPpmnpjNqdOxU72R9+LdrYYjgbMRNnUd7krY9E6wTOU2JFOuT38HJVS6oRJOUAFTNj7SGQH8Up4t02A2R7NMuX7ygPbA6XTYTETa5Nb5KIXNwXCZLtYkXazJ02JV0sUawfJjL6qmI0LilsnD9hhdo9+UDehpG/Ss3+xqPSLTS6uKJ66vfWl0JrTWJE6HzaG+sEwM9BA2NUpmyyqV25B0sSap/Abhcp/vi441zvT4vUlXPaprNysCHn7KesJPprQpt5dWeeAOBFttgfNpsSo/La8RNn3fS62oZLYiqXw9ZI4vvuGhHJCO80JF6gvHWaPnvfdMR+ctbpns5oXWUAIC56Hpuu+XsKnf3PN1de9lRVI5RjCbSecOdXiLro57l3mEhw0NgUTfDnU48P06tYaTsOkPyWxZJbMVmV8piZPnqKIJoaKVUOE1bCaDvwIno5tB+H59HTgHe0OEzSabXV5Ts8/WmSrXQNci+q8irTxsAI5xaqkd9PJ14PTaFYbu7Z3U1OzyusyvlGTqSZEHAtAZAWirsffvuFBVvg6cmdKmjD3MKY5BOnjQnF5aE9bW+Juuw38BAMG0Wnsnvl+8lcpvyNRvBcbr92l6aVWNPngt8yslHoaDZVdP4ORIJOyMTUMAmiUQtcnss3WZe75O6NyDZLasLt9/qW4vrbKuBnApXWcWcoc6tJRnNg0ROP1k8nFB0oUqCeojxhfzanzxDS8/QAMNUJ7RNMWakkDNl/ywkONb30EyW1aX7r5QTp6VCgAA/CldrAUrcBZrSkYfvGKUc5up3wpqfPEN0+cBlYhwziIAwH6BWxGeLtbkxqO3pCsRGXuYU7PP1nkQAACAwNls8yulwG8iGn3wSunaBQ0AAAicgRTUTUTpQlVduvtCcdAuAMANLA5D8L24ZUqgD1kL2iaidKGqfljIsV4TW54WqzwEAI46bXGjle87FaYR7MAZtE1Ek4/fEjbxp3cAAAC7Bf4aiaBsIhp98Crw0+ixcAu7suGb0QIA8BKTR/D7JqLhEx2+rMVvPHqrgnBFZdwypcs8Uv9ra/2vlmnIaavV6NrWQH/z/14wrAdPO221Cpv+QAcKBE4PmnxckFSuohLRkK9KfjJbVuOLb3wVKmPhFjlttUqs/Yj01f/7HwKlX8TCLdzAAUf5sU6EO+t1+FuXeYTAuV39WseaioX9k14mH731bNiKW6actlrrIbO9RU4HrBsca9cTOAkVAAC7WKYh8e5Wg8C5TbGmxE+jgeOLeU9cV/l+2lsS0Tb5KtLq2xFLoJkdMsnb/zkrjLBDg0Q0ZPz1H/9hqZNPw+bNc0clIS6cUrdMQ670d8n8Skmc2OTS2EQ0MdDj6cSTylXU2ELetT/fYG9IEpE2SUTaAjdy6bZQwZmsHi0bGmTK73jY8JW4Zcq1MxYPQoMu84jEu1uNxPu/d1XgtExDfvw6KvHuViNTqqnRB68dObZlfqUks8trauRUp2eD0PTSmus6Ehd722WwNyQXjzN966ZQwdFI3hw10BI4GeGEJolIm5aNcMWaEpYQOcM1gXN72Kw3tqbh5Cjd1JOiZ9e2uWl0c7A3JEN9YULmQQJn+xFN5YXdzl6ja5MFgRNaO9h5yrSfueIczg/D5laPJxoyrvR3OfZzNTYRee1LnX227vjPMNQXlp+/PSb//eVRg7B5MH2aRjhXa0ybek2XqakzwtFL0Bk4NUnlKkzrBDFw7hY2G672dxmDvSFHfjYvbiLKlGqObhQa7A3Jz98ek+tnu43/1d5C0PRABcwaTu/Zrb60q07hicNuX0X0XW/5S54rfQMXOGPhlo+GzYab5yKGU+d0ee0mIqfCZmMn2n9/eZSg2bT3Q99mKnr8dEjokMBJOpevsYwoYIEzbpny87fHjb321K+f7XHsNoLGJiIvfKFO3CgUt0z5v98eZ+rcjkpY01Wc9Pg9GDjb9QROGmfobEu0lGmWigQncMYtU2YuHNtXOIl3txrXB3oce1BTT4qSzJZdHTozpZr2+9KH+sLyf775jHMz7QoVmkaxnhYJnJ7rjET1dEZonOG3DraIyNzzdWZ1/B44DxI2GwZ7242Rkx2OPazJR28lXai6tpD+onkkYqgvLNfPdpM0fdDj98IFAXCmbDClDr91okRE7r2kzvN14DxM2Gy49kW3obMXtF2xpmTysXuvikxpnBZ9f3guYdMnoaIeOsv0+CkbO2I0CDoM9rZra1OS2Qob4vwaOBORtkOHzYZb56OGziMUPuztjy/mXVlIdZ0v1tggxDS6jh5/SGsFDO+IhU1t9SCjQfBlR2qlzAP3ZeBs8lD5zS+POvbQktmKTC+tui506lprdaW/S9iJrjF0ahrRv5el8qVxpjMCZw31hbV91k/LazxwPwbOple03a3G9bPdjn3+7aXVQE5BxsIt8v3JDsKmzsCpaV1TsaaYVqczsium1aGDznO3izXlysEjAqcLDZ/oMHT2hj7kpk1Eus5RdHLTVlDpPBDZiWO14I3A+ZMLbjCD/8XCptZztxnlJHDu2cRAj2OHwrt9E5HXe594HyqiIUPXGbRBXEjv5TNI492ths4D4IN2QQA79J2hcyCpWFMy9VuBUU4C597cPHfUsUPh3byJqOmNm2WydtOx0KlvJGt6KVg9fq+PcOgc5Qxa2ZhlVNcRugc2Zp+tc9sagXNvYmHTuHmOTUT2P+cW3hiHXDyurwKeXykFZpRzemlVFT3+q+psnFP5jcA0zHPP15Wukz/w5zZdd+i88bjAgydw7rGXHw0Z185Yjn3+7aVV3y+qP2218sY4ZPiE3o1aU0+Kvn+mmVJN+WH91mBvu6Fzhicoo5x/D8A74Ga692dkSpty49FbRjkJnHszcqrTcHKN4d+fFF19ExG8Hiz0le1ktuL7kawbjwpS9MlA7sXedm2flcpv+L5zPb6YV0XOBHe8I6V7Vm1+pcRpDATOvbt5LuLoJqLxX9/4trAwveRwqDjOFFOzTC+tKj/dEa67o+3n0b+55+uKc0fd4cpfOrV/5uTjAgNHBM69u362x7FNRJnSpow9zPmysD4tVnljHKR7Wt2vU0zJbFndXlr11e+ke1q9WFO+rOfShaqaZC2fq+o8J9ryHxZyhE4C597Eu1uN6wM9jn1+Kr+h/ZgFHVMP6WJNVplmcpTudU1+m2JKF6pq8tFbykaT6jk/bZZMF6rqh4UclYzLfH9K/yhnsaYInQTO/fX4nTykfPbZutaGOhbW0w3kJhqHe/x97do/c/JxwRfrORuBwq9r80ZO6a/v/LJZ0u9lw8uu9nc5MspJ6CRw7su1L7oNnWfUfUj3JiIda1dv/9vbO1SferxFSURDhhPHU40vvvF0xTv3fF2N/vO1rwNFLGw6Ut9NPi54OnQms2XCpstd6e9y5HMbodPPG4kypZoaX8yrv/7jP+rS3RfKzlmLI34vqLfORw2nzo/UvYlIx++ZKW3K/ErJky/f02LNF1NmTiykb1S8XhzpnPqtEJh1eVf7Ox35XK+GzumlVTW++Iaw6XIjpzodbccnHxd8eRvR7PKaGn3wWhqb5Io1JbeXVm1bu38kCIX15pfOHQqvcxORrnMy//6k6Lm1nPMrJd+McA2f6HCk8i3WlIwt5D0TLNKFqhp98EoF6bYYp0bAG6FzdnnNE2UjU6qpsYc5320e87OJs93OhrNn6zL64JXyw6UYqVxFjT54paaeFHdsE+dXSra8y4EInPHuVuO6g4VV1yairyJ6Auf70S5PvHSrNSX/9esb341w6d4g8mGwcPvu9emlVTX6z9eBvAvbiRHwhqknRddf9Tu9tKpGH7wWPx2LFZTOlJPnbIvUN85evv/Ks5vlGtPnYwv5T9aNU0+KTR9cOBKUwjp8osNwspHWsYkoEQ0ZOl+8ycfunmK497Ki/vf9l748U8+phfTbe8CX779Ubptin11eU5fuvgj0yJVTI+ANyWxFLt19ody2wXDu+bq6fP+lur20yhS6R107Y4mT9V7D7aVVuXz/pfLKbE+mVFM3Hr1Vl++/kv20h81eKnMkSIV1YqDHsUPhG1+e3RsvdPYA51dK8l+/vlFum17/n/yG+mEh7/u1WU4tpP+9EtuUsYW8jD3MOTrNlCnV1PTSqrp098WuU0RB4+Qop8j79euLb2TsYc7xTsns8pq6fP+lmnxc4PIKj4uFTcPpem97/Tf5uODq4JnKVdT4Yl5dvv9K5ldKB84tzfr9jgStwN48d9TRHpLdm1Z071JNZivyw0JOuWH39//kN9Tk44IaW8gHYrrMyYX0f6jU8hty+f4rGV/Maw0Xc8/XtypTRq3+aPhEh6MndGwvG41Oic4Rz2S2rG48eqv++o//qKknRYKmz+o9N5TtnYLn9NKq42s8M6WaanSyxhby0owZvmaFTkOkvqbF7imoK/1dcrW/y3BDAUnlKmpsIe/Y58ctU2YuHLPtWfz1H/9xpMBf6e+SkZMdRpfmQD+/UlLzK2VXhUxd5T2ZLavxRXddpxoLt8jg8ZAM9oaauswjlauodLEmqfyGeG2ZRCLSJrfOR7W+GE7XczuxTEOG+sKSiLbJYG97055HulBVqfwGZeMDfm7bL9194dr77uOWKUN9YRnsDWk5I7tR/udXSrauW79+tvtQN94FMnCK1KdZphy8D3ioLywTAz22PI/xxbxj6xYt05DvT3XaHjzvvayoZLYi97JlV45s6SzvYw9zrr4XPBFpk0S0TWLtR6Qv3CJB5DxeAAAQIklEQVRd5hGJd7cau4UkkfqUbLpYk0xpUzKlTc+PWDsROEVEbjx6qw46labrucQtU2LhFolb5kfLRrpQVau1d5QNAqdrO1S7dcAb5TxumU3phG/vfKdyG1rbwMOEzsAGTqeDWTN6C25/EYf6wpKItMpgb/uhw+f/5DfUL/mqpHIbnmhgdJb3TKmmRh+8ZkqZwLkjN48EgcDp9t/ProGZxjGGieinlwekcvU272mx6op6/qDZxQzyi37zXMQYffBKOXV0SmMT0W49+gNXYNGQcfn+S+X0uqX5lZLMr5Rk8nFBxS1TTlutEgu3bI107WSltCmZ8rutlyxT3mT91Sd70Kbh1YoXGhqHgR5x27ILoBmu9ncZTg8cHUSxprYGTrw4Qt9Y07nf0GkGvcBeP9sjTl5rZtcmoit/6RQ3nT2ZLtYCeSaizorX7VPrcMZgb7snG2VgL5weOAqqg4TOI0F/aPHuVuP6QI+jPZ3RB6+annaHT3Q4egQU9JsY6HbFGXVwZ6NM2YBfzVw45ooTO4IaOgmc+xwBGDnZ4djnp4s1W25uuXbG4ssNkFjYdLTzBLeHzqM8BPi3fH95lA63y0MngbMRzr7odvRsr/mVUtNvIkpEQ47eroTgdZ7gXoloyKATCr+Kd7caP34dJXQ6FDr3cqkNgXObW+ejjg7LTz4uSLMPzp4Y6GEqjc4TICL1Q7PphILQiWa7/e9Pb1olcH7g5pfOTjuNL76RZt9UwFRaMDtPrOHFbp1QygYInWimvWxKJHDuUFivn+127PMbdxA3UyIacs39s9CHhfT4WNkgdMLP7fid7z6njGs02BsicB7E8IkOR6ed7NhEdLW/y9hLgYC/sJAehE4EuYyzvEhDwLdMufKXTw9qETh34fS00/xKSWaX15o8tR6hgQlgT5/pJRA6EVS3zkfZSGmjob5wvR7ZwwU2BM6PBjRnR4emnhSbvomIBiaYoZPpJVAnIKiufdFtON2e+41lGnLz3FGZGOjh4PdmiIVNw+kNN3ZsIqKBIVgAH5YNltzAzwZ7242ZC58JdWAznmVI7nz3uTHY276vBE/g/ASnz66zYxMR4SPYwYJjcf7cU0d9yQ2bC+FnsbBpzFw4Rjk/RF1589xRuXkucqBKk8C5ByOnOh3t/dt1ExHhI5gmBnqM62e5BlNEJBFpE25n+t3V/i6mHt+LW6Y4eWIJ7C3nM998Jmwo2kcOOtlxoFFNAucBe/9+20S0PXwEp4fLMUEi9ZMYfvw6GujppSv9XXLrfJSLET7QmHoMcmM8crJDZi4cM/qoL/zboehuNW6dj9L53kOnfOabz+TaF92HfkgEzn24frbH8U1EyWy56aFz+ESHMfON/9e2jJzskJ+/PU7Nsq3CbUwvBanCjYVb5NbXEbna30VZ2PUZmcat81Hj2hkrkGWjGY0rvNP5vvPd54GrB/f6Ltw6H93TDvS9YBHfPhvoZLas7FhTuVeTj95KulBVzSoA2383EZHppVV1e2nVV99bItIm185Y0uxn5hdX+7uMTKmm6h2aiq9/1yv9XXK1v8v4ma99b520U52GiMiNR2/V/ErJ9x3Sa190UzYCXA822sCfltekWFOBfA5xy5TvT3bI8ImOpr8LBM59GuxtN5wMZcWaksnHbwkfewyaV/s7JRENGbcoup/ozda79qlcRU0vrUkqv+Gr32+oLyxX+zu3fk/sz8RAj+HXspGItMnEQDdlA4EOntvbyxmbPoPAecACOfYwp5yqeNPFmi2jnH4JH0N9YRnua3c0aHp1aiYRDfkqeG4PmhNUXZQNOqTYZ/Cce76ufnq2LulizXe/o2UaMtQXlpFTHfVlNDZ/nikiEmu3fynn4HF/nfF263zUGH3wSjlVCC0Ns8PbG5i5lbK4eUotbpnvX5xO418iMvGJEGL37+L1Mw0b3326UFWzz9blXrbsmZ7+h5UoQdOespEp1dT00prnysbF3vatTojfg+ZXkVa5reEz/Gz4RMdWXTi/UpLky4pkSpueDpkXe9tlsDckg73txh0Ruabps7dSi13Dx5ZpyN/OWFtfmt/cePRW6axwnXyemVJNJbMVmX227ooXLm6Z9RfneGjf6zPtWpMWC7fIlb90+rK8zz1fV/deVly51OLDSnQ//24qV1FjC3l7Q1qkTW6dj/p2ytbNZaPRAbx4PLTv99IPZcPOtv37U52B3HzXCJ+p/IYnRj5j4RYZPB6SRLRNDnOsUdMCJ7DfFy75siL3smVtL1ws3CKJSJskIq3yVbSNNVcOB4xUviqp/IZjnY+4ZdbLwyErUQJncyWzZZXMVigblI1AyJRq6pfchjhdH35Y/k9bra5rK1nDiYMV6A9GFJPZskoXa5LKbUimvHnoly5umRILt8hpq1Xilvn+7012kLrE9pGiTKmm0sWaNPP7/3AkpVEOYuGWepiIhox/icgMX4XrfBjwGnXD02JVMqXNpnZQG2WjUS4oG9BtpzCXylXUL/l6ec+UNuVpsWrLLGjjrNxEtE1i7UekL9yyVf7diMAJWxoZkfoo6GrtnayUNiVTfvfRRqNxBmgs3CKxsOnaFwZ7q3AbQbQRPNPF2p4q3Ealub0siIjc4TH7qm6gbMDPGuucd2sT91PuReoDMI2NqF3mka0BH6+1kwRO2IZzLwmiPAVQNgDaRBFuGgIAAACBEwAAAAROAPCoX/JV2z/DYnUJAAInAMBOp61WHgIAAicAANAv9n7nPUDgBAAggHRcakHgBIETANAUFqcAeZJX7ogHCJwA4HI6rqJrXGwA0BkBgRMACJzAlqdF+08woDMCAicABCFwlu0PnLtddQd3K1aZUgcInADQjMDJCCd2oWOEk84ICJwA4HPpgv1DWEyZehebhgACJwAcPnBqGMHqMqlmvSiVq9ieNhORNh40CJwA4HdPNZyzmIgSKryIK08BAicANEUqv2H7Z8TaqWY9WTZy9pcNrjwFgRMAfC5TqikdN8n0cZMMnZFdfBUhcILACQC+9ouGESwRdiF7UTJb1rJbiGstQeAEAJ+797Ji+2ewQ92rgdP+shELt0gszDVDIHACgG9lSjWlI1SwC9mjnZFsmc4IQOAEgMOZWylr+ZzThArvlY3n60rH+Zt0RkDgBOB7qVxFTS+tKh0Hn7vRT8trWj5n+ESH56ZM04Wqml5aVTrOoXSj2//WUzYInAga1o8AATP2MKe278Ad6gvLxEBPYOqC6aVVdXtp1fbPiVumzFw45qnneuPRWzW/UvL073AYc8/X1eTjgu2fY5mG3Pnuc9pfBAojnECAjD54pT487mV+pSQ3Hr0NzGiWrtFNr41gfRg2RUTSxZqMPngVmLKha3TzYm87lREInAD8GzZ3O3cyKKFz6reC0nU/9lBf2NNhc3voDELZmF5aVZnSppbPGuwNUSGBwAkgWGEzKKEzXaiq2WfrWj4rFm6ReLc37i38WNgMStnIlGpK18h3PXC2M50OAieA4IXNIASL8V/f6AsUx70xgrWXsBmIsrH4Rhj5BgicADSETT8Hi/HFvLbpUq+Eiv2Eze1lw29rOm88eqvlitOtzgjT6SBwAgh62PRjsLjx6K2WQ94bvDCdfpCw2eCnjURzz9cP/BwOwjINptNB4ARA2PwwWFy+/9LTZ3UeJlgd1MjJDt8/k3SxJpfuvvB02dB1BNJ2TKeDwAmAsLmDTGlTfljIydzzdc8FCyfCpmUaMnKq0wjCMynWlIz+87XMLq95rmxML61qD5siIiOnOgQgcAIgbO4SLCYfF2R8Me+ZYDG+mNceNkXcfb6iXQF86klRxh7mPFM2bjx6q+Xg/w8N9YUlFjaZTgeBEwBh82OS2YpcuvtCJbNl14aLVK6iLt9/qXXN5nZX+zsDFTa3nnt+Qy7dfaHcPNqZLlTV6INXjnRERESG+zjsHcFGbwsgbO5bItIm185YrtkckynV1PTSmjgVJkTce0Wo7qUFiUibXO3vlEQ05JpnMfVbQdsZrLs9k1vno7S3IHACIGweNGSNnOxwLHhmSjU1t1KWn5bXtJ2juJufvz3muilTJ9axuil4Ti+tKjeUjVtfR1wVwAECJwDPhM0Pw8VQX7sMn+jQUqcks2WVzFYcHdHcbuRkh1z7opuw6YKy0bhR6l627HjQbHTK3DjyDRA4AeyJE8e6fIplGnKxt10Ge0NNP2+wETJT+Q3ReYj7Xn7nO9997qq6NJktq/HFN4EqG6nchiRfVlxXNmYufMZmIYDACXjX9NKqI7tt9yMRaZO4Zcppy5S+cMsnpxUzpZrKlDalWFOSLtbkabEqmdKmuGEUdzfXz3ZrG73zU9mIW6YkIm31g/ItU2Lhlk8Gs1SuohplI1PalKfFqqvLxpX+Lrna30U7CxA4AQInDheo3bgZZHZ5TU09KfIFORyoZy4co40F3uNYJMCjhvvaxWKmzjGWacjEQLcrf7aRU50GZcNZ18/28BAAAifgfbGwafz4dVRi4RYehgP+dsZy9dq8O999bsQtky/KAW46MgwgcAI4tHh3q/Hzt8cJFpoN9YVdt25zJzMXjlE2NBvsDbn6elPAKbwUgE+45Ygk34d8D67Nc8sRSZQNILgY4QR8YubCMWOoL8yDsFH9mBvvBYqJgR7KhoaywbpNYHf0xACfcfoaPz8Hih+/jnp6bd7c83U1v1L2xM+6WnsnXhmx90PZAAicAA4ULNx2KDxh0x2S2bKafPTWFbfw+MXNc0ebfpg9QOAE4AnpQlX9sJAjWBA2dywb47++cdWtPF7lxoP/AQInAO3YTETY3M34Yl4lsxW+aMoGQOAEcHis69y/uGXK9bM9vg8U3EpE2AQInACaJpWrqPHFN0yx78Fgb0hunosEpn5kin1/HRGOPgIInAA+gWnUj7vS3yVX+7sCWTcyEv5xIyc75NoX3bSbAIETwF4ks2U19aTIiNY2sXCL3PzyaOCnSVO5irrxuEDZ+KBsTJztlkQ0RJsJEDgB7BcjWnVBHtXczfTSqvppeS3wSzAY1QQInACaIFOqqRuPCpLKbwTud09E2mRioFtiYZO6cJeyMb20JkG8FjMRaZOr/Z2MagIETgDNlMpV1PTSWiCCJ2Fif9KFqpp6UgxE2YiFW+TKXzo5WxMgcAIgeBI0nSobcytlX454xi1Tvj/ZQdAECJwAdGpMp97Llj29js8yDbnY2y4jJzs4N7GJZWN2eV3mV0qeX+M51BeW4b52OiEAgROA0+aer6v5lbKnRj0He0Ny8XiIESsNZePey4p46agtRjMBAicAF8uUaiqZrUgqv+G6gNEYyUxEWgkShM8/lY1EtI0OCEDgBOBFqVxF/ZKvSiq3oX30M26ZctpqlbhlSiLSxnS5i8vG02JV69R7LNxSLxOUDYDACcB/0oWqypQ3JV2s1UNGVUmmvHngQ8QTkbatABELt0jcMt+PVrHezmsypZpKF2uSLtYkU6qXicOUjbhlSpd5ZKtsxNqPSF+4hbIBEDgBoD7ytds/q4cHzsSkbFA2AAAAAAD78P8B2hu62gUtTm0AAAAASUVORK5CYII=;" parent="1" vertex="1">
          <mxGeometry x="138.79" y="352.5" width="142.41" height="55" as="geometry" />
        </mxCell>
        <mxCell id="e7M6pUnSMC9Z2cOsjcXj-2" value="" style="shape=cylinder3;whiteSpace=wrap;html=1;boundedLbl=1;backgroundOutline=1;size=15;fillColor=#60a917;strokeColor=#2D7600;fontColor=#ffffff;" parent="1" vertex="1">
          <mxGeometry x="451" y="200" width="60" height="80" as="geometry" />
        </mxCell>
        <mxCell id="e7M6pUnSMC9Z2cOsjcXj-5" value="" style="shape=cylinder3;whiteSpace=wrap;html=1;boundedLbl=1;backgroundOutline=1;size=15;fillColor=#60a917;strokeColor=#2D7600;fontColor=#ffffff;" parent="1" vertex="1">
          <mxGeometry x="631" y="280" width="60" height="80" as="geometry" />
        </mxCell>
        <mxCell id="e7M6pUnSMC9Z2cOsjcXj-6" value="" style="shape=cylinder3;whiteSpace=wrap;html=1;boundedLbl=1;backgroundOutline=1;size=15;fillColor=#60a917;strokeColor=#2D7600;fontColor=#ffffff;" parent="1" vertex="1">
          <mxGeometry x="451" y="320" width="60" height="80" as="geometry" />
        </mxCell>
        <mxCell id="e7M6pUnSMC9Z2cOsjcXj-8" value="" style="shape=cylinder3;whiteSpace=wrap;html=1;boundedLbl=1;backgroundOutline=1;size=15;fillColor=#60a917;strokeColor=#2D7600;fontColor=#ffffff;" parent="1" vertex="1">
          <mxGeometry x="451" y="440" width="60" height="80" as="geometry" />
        </mxCell>
        <mxCell id="e7M6pUnSMC9Z2cOsjcXj-10" value="" style="shape=cylinder3;whiteSpace=wrap;html=1;boundedLbl=1;backgroundOutline=1;size=15;fillColor=#60a917;strokeColor=#2D7600;fontColor=#ffffff;" parent="1" vertex="1">
          <mxGeometry x="631" y="400" width="60" height="80" as="geometry" />
        </mxCell>
        <mxCell id="e7M6pUnSMC9Z2cOsjcXj-11" value="&lt;b&gt;&lt;font style=&quot;font-size: 24px;&quot;&gt;&quot;Movie Corpus Dataset&quot;&amp;nbsp;&lt;/font&gt;&lt;/b&gt;" style="text;html=1;align=center;verticalAlign=middle;resizable=0;points=[];autosize=1;strokeColor=none;fillColor=none;" parent="1" vertex="1">
          <mxGeometry x="59.999999999999986" y="410" width="300" height="40" as="geometry" />
        </mxCell>
        <mxCell id="e7M6pUnSMC9Z2cOsjcXj-14" value="movie_characters_metadata.tsv" style="text;html=1;align=center;verticalAlign=middle;resizable=0;points=[];autosize=1;" parent="1" vertex="1">
          <mxGeometry x="386" y="280" width="190" height="30" as="geometry" />
        </mxCell>
        <mxCell id="e7M6pUnSMC9Z2cOsjcXj-16" value="movie_conversations.tsv" style="text;html=1;align=center;verticalAlign=middle;resizable=0;points=[];autosize=1;strokeColor=none;fillColor=none;" parent="1" vertex="1">
          <mxGeometry x="406" y="400" width="150" height="30" as="geometry" />
        </mxCell>
        <mxCell id="e7M6pUnSMC9Z2cOsjcXj-18" value="movie_lines.tsv" style="text;html=1;align=center;verticalAlign=middle;resizable=0;points=[];autosize=1;strokeColor=none;fillColor=none;" parent="1" vertex="1">
          <mxGeometry x="426" y="520" width="110" height="30" as="geometry" />
        </mxCell>
        <mxCell id="e7M6pUnSMC9Z2cOsjcXj-20" value="movie_titles_metadata.tsv" style="text;html=1;align=center;verticalAlign=middle;resizable=0;points=[];autosize=1;strokeColor=none;fillColor=none;" parent="1" vertex="1">
          <mxGeometry x="581" y="360" width="160" height="30" as="geometry" />
        </mxCell>
        <mxCell id="e7M6pUnSMC9Z2cOsjcXj-21" value="raw_script_urls.tsv" style="text;html=1;align=center;verticalAlign=middle;resizable=0;points=[];autosize=1;strokeColor=none;fillColor=none;" parent="1" vertex="1">
          <mxGeometry x="601" y="480" width="120" height="30" as="geometry" />
        </mxCell>
        <mxCell id="QQR0XhGXe7q2qPDhbHRY-15" style="edgeStyle=orthogonalEdgeStyle;rounded=0;orthogonalLoop=1;jettySize=auto;html=1;exitX=1;exitY=0.5;exitDx=0;exitDy=0;" parent="1" source="QQR0XhGXe7q2qPDhbHRY-3" target="QQR0XhGXe7q2qPDhbHRY-4" edge="1">
          <mxGeometry relative="1" as="geometry" />
        </mxCell>
        <mxCell id="QQR0XhGXe7q2qPDhbHRY-3" value="&lt;div style=&quot;&quot;&gt;&lt;ul&gt;&lt;li style=&quot;text-align: left;&quot;&gt;&lt;span style=&quot;font-size: 18px;&quot;&gt;Reformat data&lt;/span&gt;&lt;/li&gt;&lt;li style=&quot;text-align: left;&quot;&gt;&lt;span style=&quot;font-size: 18px;&quot;&gt;Convert from .tsv to .csv&lt;/span&gt;&lt;/li&gt;&lt;li style=&quot;text-align: left;&quot;&gt;&lt;span style=&quot;font-size: 18px;&quot;&gt;Eliminate irrelevant data&lt;/span&gt;&lt;/li&gt;&lt;/ul&gt;&lt;/div&gt;" style="rounded=1;whiteSpace=wrap;html=1;align=center;fillColor=none;" parent="1" vertex="1">
          <mxGeometry x="881" y="300" width="230" height="160" as="geometry" />
        </mxCell>
        <mxCell id="RDKLvSjyZ7ZfecBES4Iw-11" style="edgeStyle=orthogonalEdgeStyle;rounded=0;orthogonalLoop=1;jettySize=auto;html=1;exitX=1;exitY=0.75;exitDx=0;exitDy=0;entryX=0;entryY=0.5;entryDx=0;entryDy=0;" parent="1" source="QQR0XhGXe7q2qPDhbHRY-4" target="QQR0XhGXe7q2qPDhbHRY-17" edge="1">
          <mxGeometry relative="1" as="geometry" />
        </mxCell>
        <mxCell id="QQR0XhGXe7q2qPDhbHRY-4" value="" style="rounded=1;whiteSpace=wrap;html=1;fillColor=none;fontColor=#333333;strokeColor=#666666;" parent="1" vertex="1">
          <mxGeometry x="1231" y="180" width="380" height="400" as="geometry" />
        </mxCell>
        <mxCell id="QQR0XhGXe7q2qPDhbHRY-5" value="" style="shape=cylinder3;whiteSpace=wrap;html=1;boundedLbl=1;backgroundOutline=1;size=15;fillColor=#60a917;strokeColor=#2D7600;fontColor=#ffffff;" parent="1" vertex="1">
          <mxGeometry x="1311" y="252.5" width="60" height="80" as="geometry" />
        </mxCell>
        <mxCell id="QQR0XhGXe7q2qPDhbHRY-6" value="" style="shape=cylinder3;whiteSpace=wrap;html=1;boundedLbl=1;backgroundOutline=1;size=15;fillColor=#60a917;strokeColor=#2D7600;fontColor=#ffffff;" parent="1" vertex="1">
          <mxGeometry x="1482" y="252.5" width="60" height="80" as="geometry" />
        </mxCell>
        <mxCell id="QQR0XhGXe7q2qPDhbHRY-7" value="" style="shape=cylinder3;whiteSpace=wrap;html=1;boundedLbl=1;backgroundOutline=1;size=15;fillColor=#60a917;strokeColor=#2D7600;fontColor=#ffffff;" parent="1" vertex="1">
          <mxGeometry x="1311" y="387.5" width="60" height="80" as="geometry" />
        </mxCell>
        <mxCell id="QQR0XhGXe7q2qPDhbHRY-8" value="" style="shape=cylinder3;whiteSpace=wrap;html=1;boundedLbl=1;backgroundOutline=1;size=15;fillColor=#60a917;strokeColor=#2D7600;fontColor=#ffffff;" parent="1" vertex="1">
          <mxGeometry x="1482" y="387.5" width="60" height="80" as="geometry" />
        </mxCell>
        <mxCell id="QQR0XhGXe7q2qPDhbHRY-10" value="movie_characters_metadata.csv" style="text;html=1;align=center;verticalAlign=middle;resizable=0;points=[];autosize=1;strokeColor=none;fillColor=none;" parent="1" vertex="1">
          <mxGeometry x="1241" y="332.5" width="200" height="30" as="geometry" />
        </mxCell>
        <mxCell id="QQR0XhGXe7q2qPDhbHRY-11" value="movie_conversations.csv" style="text;html=1;align=center;verticalAlign=middle;resizable=0;points=[];autosize=1;strokeColor=none;fillColor=none;" parent="1" vertex="1">
          <mxGeometry x="1261" y="467.5" width="160" height="30" as="geometry" />
        </mxCell>
        <mxCell id="QQR0XhGXe7q2qPDhbHRY-12" value="movie_lines.csv" style="text;html=1;align=center;verticalAlign=middle;resizable=0;points=[];autosize=1;strokeColor=none;fillColor=none;" parent="1" vertex="1">
          <mxGeometry x="1457" y="467.5" width="110" height="30" as="geometry" />
        </mxCell>
        <mxCell id="QQR0XhGXe7q2qPDhbHRY-13" value="movie_titles_metadata.csv" style="text;html=1;align=center;verticalAlign=middle;resizable=0;points=[];autosize=1;strokeColor=none;fillColor=none;" parent="1" vertex="1">
          <mxGeometry x="1432" y="332.5" width="160" height="30" as="geometry" />
        </mxCell>
        <mxCell id="RDKLvSjyZ7ZfecBES4Iw-12" style="edgeStyle=orthogonalEdgeStyle;rounded=0;orthogonalLoop=1;jettySize=auto;html=1;entryX=0.372;entryY=1.012;entryDx=0;entryDy=0;entryPerimeter=0;" parent="1" edge="1">
          <mxGeometry relative="1" as="geometry">
            <mxPoint x="2535.76" y="362.5" as="targetPoint" />
            <mxPoint x="2036" y="514.53" as="sourcePoint" />
            <Array as="points">
              <mxPoint x="2536" y="514.52" />
            </Array>
          </mxGeometry>
        </mxCell>
        <mxCell id="QQR0XhGXe7q2qPDhbHRY-17" value="&lt;div style=&quot;&quot;&gt;&lt;ul&gt;&lt;li style=&quot;text-align: left;&quot;&gt;&lt;span style=&quot;font-size: 18px; background-color: initial;&quot;&gt;Normalize and process data&lt;/span&gt;&lt;br&gt;&lt;/li&gt;&lt;li style=&quot;text-align: left;&quot;&gt;&lt;span style=&quot;font-size: 18px;&quot;&gt;Populate database&lt;/span&gt;&lt;/li&gt;&lt;/ul&gt;&lt;/div&gt;" style="rounded=1;whiteSpace=wrap;html=1;align=center;fillColor=none;" parent="1" vertex="1">
          <mxGeometry x="1790" y="450" width="251" height="120" as="geometry" />
        </mxCell>
        <mxCell id="QQR0XhGXe7q2qPDhbHRY-19" value="" style="shape=cylinder3;whiteSpace=wrap;html=1;boundedLbl=1;backgroundOutline=1;size=15;rotation=0;fillColor=#1ba1e2;strokeColor=#006EAF;fontColor=#ffffff;" parent="1" vertex="1">
          <mxGeometry x="2481" y="150" width="119" height="160" as="geometry" />
        </mxCell>
        <mxCell id="QQR0XhGXe7q2qPDhbHRY-21" value="&lt;span style=&quot;font-size: 18px;&quot;&gt;movie_corpus_schema.sql&lt;/span&gt;" style="text;html=1;align=center;verticalAlign=middle;resizable=0;points=[];autosize=1;strokeColor=none;fillColor=none;" parent="1" vertex="1">
          <mxGeometry x="2116" y="320" width="240" height="40" as="geometry" />
        </mxCell>
        <mxCell id="QQR0XhGXe7q2qPDhbHRY-26" style="edgeStyle=orthogonalEdgeStyle;rounded=0;orthogonalLoop=1;jettySize=auto;html=1;entryX=0;entryY=0.5;entryDx=0;entryDy=0;" parent="1" target="QQR0XhGXe7q2qPDhbHRY-25" edge="1">
          <mxGeometry relative="1" as="geometry">
            <mxPoint x="341" y="745" as="sourcePoint" />
          </mxGeometry>
        </mxCell>
        <mxCell id="FrW1PNnr_hEzcfZnNzeb-2" style="edgeStyle=orthogonalEdgeStyle;rounded=0;orthogonalLoop=1;jettySize=auto;html=1;exitX=1;exitY=0.5;exitDx=0;exitDy=0;" parent="1" source="QQR0XhGXe7q2qPDhbHRY-25" target="RDKLvSjyZ7ZfecBES4Iw-4" edge="1">
          <mxGeometry relative="1" as="geometry" />
        </mxCell>
        <mxCell id="FrW1PNnr_hEzcfZnNzeb-4" style="edgeStyle=orthogonalEdgeStyle;rounded=0;orthogonalLoop=1;jettySize=auto;html=1;" parent="1" source="QQR0XhGXe7q2qPDhbHRY-25" target="FrW1PNnr_hEzcfZnNzeb-1" edge="1">
          <mxGeometry relative="1" as="geometry" />
        </mxCell>
        <mxCell id="QQR0XhGXe7q2qPDhbHRY-25" value="&lt;div style=&quot;&quot;&gt;&lt;ul&gt;&lt;li style=&quot;text-align: left;&quot;&gt;&lt;span style=&quot;font-size: 18px;&quot;&gt;Request and extract movies data&lt;/span&gt;&lt;/li&gt;&lt;/ul&gt;&lt;/div&gt;" style="rounded=1;whiteSpace=wrap;html=1;align=center;fillColor=none;" parent="1" vertex="1">
          <mxGeometry x="881" y="685" width="230" height="120" as="geometry" />
        </mxCell>
        <mxCell id="TESO7L6EewsB5RYmUQNx-1" value="" style="shape=image;verticalLabelPosition=bottom;labelBackgroundColor=default;verticalAlign=top;aspect=fixed;imageAspect=0;image=https://upload.wikimedia.org/wikipedia/commons/thumb/8/89/Tmdb.new.logo.svg/2560px-Tmdb.new.logo.svg.png;" parent="1" vertex="1">
          <mxGeometry x="119.61" y="675" width="180.77" height="130" as="geometry" />
        </mxCell>
        <mxCell id="RDKLvSjyZ7ZfecBES4Iw-1" value="&lt;font style=&quot;font-size: 10px;&quot;&gt;https://www.kaggle.com/datasets/Cornell-University/&lt;br&gt;movie-dialog-corpus/data?select=raw_script_urls.tsv&lt;/font&gt;" style="text;html=1;align=center;verticalAlign=middle;resizable=0;points=[];autosize=1;strokeColor=none;fillColor=none;" parent="1" vertex="1">
          <mxGeometry x="75.37999999999997" y="450" width="260" height="40" as="geometry" />
        </mxCell>
        <mxCell id="RDKLvSjyZ7ZfecBES4Iw-3" value="&lt;font style=&quot;font-size: 10px;&quot;&gt;https://developer.themoviedb.org/docs&lt;/font&gt;" style="text;html=1;align=center;verticalAlign=middle;resizable=0;points=[];autosize=1;strokeColor=none;fillColor=none;" parent="1" vertex="1">
          <mxGeometry x="110.38" y="820" width="190" height="30" as="geometry" />
        </mxCell>
        <mxCell id="RDKLvSjyZ7ZfecBES4Iw-8" style="edgeStyle=orthogonalEdgeStyle;rounded=0;orthogonalLoop=1;jettySize=auto;html=1;exitX=1;exitY=0.5;exitDx=0;exitDy=0;" parent="1" source="RDKLvSjyZ7ZfecBES4Iw-5" target="RDKLvSjyZ7ZfecBES4Iw-6" edge="1">
          <mxGeometry relative="1" as="geometry" />
        </mxCell>
        <mxCell id="RDKLvSjyZ7ZfecBES4Iw-5" value="&lt;div style=&quot;&quot;&gt;&lt;ul&gt;&lt;li style=&quot;text-align: left;&quot;&gt;&lt;span style=&quot;font-size: 18px;&quot;&gt;Create a SQLite database schema&amp;nbsp;&lt;/span&gt;&lt;/li&gt;&lt;/ul&gt;&lt;/div&gt;" style="rounded=1;whiteSpace=wrap;html=1;align=center;fillColor=none;" parent="1" vertex="1">
          <mxGeometry x="1790" y="170" width="229" height="120" as="geometry" />
        </mxCell>
        <mxCell id="RDKLvSjyZ7ZfecBES4Iw-6" value="" style="shape=cylinder3;whiteSpace=wrap;html=1;boundedLbl=1;backgroundOutline=1;size=15;rotation=0;fillColor=#1ba1e2;strokeColor=#006EAF;fontColor=#ffffff;" parent="1" vertex="1">
          <mxGeometry x="2176.5" y="150" width="119" height="160" as="geometry" />
        </mxCell>
        <mxCell id="RDKLvSjyZ7ZfecBES4Iw-14" style="edgeStyle=orthogonalEdgeStyle;rounded=0;orthogonalLoop=1;jettySize=auto;html=1;exitX=1;exitY=0.5;exitDx=0;exitDy=0;entryX=0.754;entryY=1.012;entryDx=0;entryDy=0;entryPerimeter=0;" parent="1" source="RDKLvSjyZ7ZfecBES4Iw-4" target="RDKLvSjyZ7ZfecBES4Iw-15" edge="1">
          <mxGeometry relative="1" as="geometry">
            <mxPoint x="2560" y="340" as="targetPoint" />
          </mxGeometry>
        </mxCell>
        <mxCell id="RDKLvSjyZ7ZfecBES4Iw-4" value="&lt;div style=&quot;&quot;&gt;&lt;ul&gt;&lt;li style=&quot;text-align: left;&quot;&gt;&lt;span style=&quot;font-size: 18px;&quot;&gt;Add Actors table to the database&lt;/span&gt;&lt;/li&gt;&lt;li style=&quot;text-align: left;&quot;&gt;&lt;span style=&quot;font-size: 18px;&quot;&gt;Connect characters to their respective actor&lt;/span&gt;&lt;/li&gt;&lt;/ul&gt;&lt;/div&gt;" style="rounded=1;whiteSpace=wrap;html=1;align=center;fillColor=none;" parent="1" vertex="1">
          <mxGeometry x="1779.5" y="640" width="250" height="120" as="geometry" />
        </mxCell>
        <mxCell id="RDKLvSjyZ7ZfecBES4Iw-13" style="edgeStyle=orthogonalEdgeStyle;rounded=0;orthogonalLoop=1;jettySize=auto;html=1;entryX=0;entryY=0.5;entryDx=0;entryDy=0;entryPerimeter=0;" parent="1" source="RDKLvSjyZ7ZfecBES4Iw-6" target="QQR0XhGXe7q2qPDhbHRY-19" edge="1">
          <mxGeometry relative="1" as="geometry" />
        </mxCell>
        <mxCell id="RDKLvSjyZ7ZfecBES4Iw-15" value="&lt;span style=&quot;font-size: 18px;&quot;&gt;final.db&lt;/span&gt;" style="text;html=1;align=center;verticalAlign=middle;resizable=0;points=[];autosize=1;strokeColor=none;fillColor=none;" parent="1" vertex="1">
          <mxGeometry x="2500" y="322.5" width="80" height="40" as="geometry" />
        </mxCell>
        <mxCell id="FrW1PNnr_hEzcfZnNzeb-1" value="&lt;div style=&quot;&quot;&gt;&lt;ul&gt;&lt;li style=&quot;text-align: left;&quot;&gt;&lt;span style=&quot;font-size: 18px;&quot;&gt;Add additional movie and character metadata to the database&lt;/span&gt;&lt;/li&gt;&lt;/ul&gt;&lt;/div&gt;" style="rounded=1;whiteSpace=wrap;html=1;align=center;fillColor=none;" parent="1" vertex="1">
          <mxGeometry x="1779.5" y="805" width="280.5" height="120" as="geometry" />
        </mxCell>
        <mxCell id="FrW1PNnr_hEzcfZnNzeb-5" style="edgeStyle=orthogonalEdgeStyle;rounded=0;orthogonalLoop=1;jettySize=auto;html=1;exitX=1;exitY=0.5;exitDx=0;exitDy=0;entryX=0.108;entryY=0.962;entryDx=0;entryDy=0;entryPerimeter=0;" parent="1" source="FrW1PNnr_hEzcfZnNzeb-1" target="RDKLvSjyZ7ZfecBES4Iw-15" edge="1">
          <mxGeometry relative="1" as="geometry" />
        </mxCell>
      </root>
    </mxGraphModel>
  </diagram>
</mxfile>
